# xmcd
#
# Track frame offsets: 
#        150
#        11238
#        22687
#        37828
#        54706
#        71820
#        87748
#        97335
#        112407
#        123611
#        136493
#        147890
#        160496
#        172421
#        188475
#        199472
#        208945
#
# Disc length: 2968 seconds
#
# Revision: 3
# Processed by: cddbd v1.5.2PL0 Copyright (c) Steve Scherf et al.
# Submitted via: ExactAudioCopyFreeDBPlugin 1.0
#
DISCID=130b9611
DTITLE=Bobbie Gentry - The Girl From Chickasaw County (3): Local Gentr
DTITLE=y '68
DYEAR=2018
DGENRE=Country
TTITLE0=Sweete Peony
TTITLE1=Casket Vignette
TTITLE2=Come Away Melinda
TTITLE3=The Fool on the Hill
TTITLE4=Papa's Medicine Show
TTITLE5=Ace Insurance Man
TTITLE6=Recollection
TTITLE7=Sittin' Pretty
TTITLE8=Eleanor Rigby
TTITLE9=Peaceful
TTITLE10=Here, There and Everywhere
TTITLE11=Hushabye Mountain  (Bonus Tracks)
TTITLE12=Skip A-Long Sam  (Bonus Tracks)
TTITLE13=The Conspiracy of Homer Jones  (Bonus Tracks)
TTITLE14=Sweete Peony (Alternate Version)  (Bonus Tracks)
TTITLE15=Cotton Candy Sandman (Demo)  (Bonus Tracks)
TTITLE16=Hushabye Mountain (Demo)  (Bonus Tracks)
EXTD=
EXTT0=
EXTT1=
EXTT2=
EXTT3=
EXTT4=
EXTT5=
EXTT6=
EXTT7=
EXTT8=
EXTT9=
EXTT10=
EXTT11=
EXTT12=
EXTT13=
EXTT14=
EXTT15=
EXTT16=
PLAYORDER=
